<?xml version="1.0" encoding="utf-8" standalone="no"?>
<!DOCTYPE svg PUBLIC "-//W3C//DTD SVG 1.1//EN"
  "http://www.w3.org/Graphics/SVG/1.1/DTD/svg11.dtd">
<svg xmlns:xlink="http://www.w3.org/1999/xlink" width="388.8pt" height="388.8pt" viewBox="0 0 388.8 388.8" xmlns="http://www.w3.org/2000/svg" version="1.1">
 <metadata>
  <rdf:RDF xmlns:dc="http://purl.org/dc/elements/1.1/" xmlns:cc="http://creativecommons.org/ns#" xmlns:rdf="http://www.w3.org/1999/02/22-rdf-syntax-ns#">
   <cc:Work>
    <dc:type rdf:resource="http://purl.org/dc/dcmitype/StillImage"/>
    <dc:date>2024-10-09T13:01:38.038022</dc:date>
    <dc:format>image/svg+xml</dc:format>
    <dc:creator>
     <cc:Agent>
      <dc:title>Matplotlib v3.5.3, https://matplotlib.org/</dc:title>
     </cc:Agent>
    </dc:creator>
   </cc:Work>
  </rdf:RDF>
 </metadata>
 <defs>
  <style type="text/css">*{stroke-linejoin: round; stroke-linecap: butt}</style>
 </defs>
 <g id="figure_1">
  <g id="patch_1">
   <path d="M 0 388.8 
L 388.8 388.8 
L 388.8 0 
L 0 0 
z
" style="fill: #ffffff"/>
  </g>
  <g id="axes_1">
   <g id="patch_2">
    <path d="M 55.645313 336.602813 
L 345.895312 336.602813 
L 345.895312 5.88615 
L 55.645313 5.88615 
z
" style="fill: #ffffff"/>
   </g>
   <g id="matplotlib.axis_1">
    <g id="xtick_1">
     <g id="line2d_1">
      <defs>
       <path id="m41ad390732" d="M 0 0 
L 0 3.5 
" style="stroke: #000000; stroke-width: 0.8"/>
      </defs>
      <g>
       <use xlink:href="#m41ad390732" x="55.645312" y="336.602813" style="stroke: #000000; stroke-width: 0.8"/>
      </g>
     </g>
     <g id="text_1">
      <!-- 5000 -->
      <g transform="translate(4.745312 373.996563)scale(0.4 -0.4)">
       <defs>
        <path id="DejaVuSerif-35" d="M 3219 4666 
L 3219 4153 
L 1081 4153 
L 1081 2816 
Q 1244 2928 1461 2984 
Q 1678 3041 1947 3041 
Q 2703 3041 3140 2622 
Q 3578 2203 3578 1478 
Q 3578 738 3136 323 
Q 2694 -91 1894 -91 
Q 1572 -91 1234 -12 
Q 897 66 544 225 
L 544 1131 
L 897 1131 
Q 925 688 1179 453 
Q 1434 219 1894 219 
Q 2388 219 2653 544 
Q 2919 869 2919 1478 
Q 2919 2084 2655 2407 
Q 2391 2731 1894 2731 
Q 1613 2731 1398 2631 
Q 1184 2531 1019 2322 
L 750 2322 
L 750 4666 
L 3219 4666 
z
" transform="scale(0.015625)"/>
        <path id="DejaVuSerif-30" d="M 2034 219 
Q 2513 219 2750 744 
Q 2988 1269 2988 2328 
Q 2988 3391 2750 3916 
Q 2513 4441 2034 4441 
Q 1556 4441 1318 3916 
Q 1081 3391 1081 2328 
Q 1081 1269 1318 744 
Q 1556 219 2034 219 
z
M 2034 -91 
Q 1275 -91 848 546 
Q 422 1184 422 2328 
Q 422 3475 848 4112 
Q 1275 4750 2034 4750 
Q 2797 4750 3222 4112 
Q 3647 3475 3647 2328 
Q 3647 1184 3222 546 
Q 2797 -91 2034 -91 
z
" transform="scale(0.015625)"/>
       </defs>
       <use xlink:href="#DejaVuSerif-35"/>
       <use xlink:href="#DejaVuSerif-30" x="63.623047"/>
       <use xlink:href="#DejaVuSerif-30" x="127.246094"/>
       <use xlink:href="#DejaVuSerif-30" x="190.869141"/>
      </g>
     </g>
    </g>
    <g id="xtick_2">
     <g id="line2d_2">
      <g>
       <use xlink:href="#m41ad390732" x="200.770312" y="336.602813" style="stroke: #000000; stroke-width: 0.8"/>
      </g>
     </g>
     <g id="text_2">
      <!-- 5020 -->
      <g transform="translate(149.870312 373.996563)scale(0.4 -0.4)">
       <defs>
        <path id="DejaVuSerif-32" d="M 819 3553 
L 469 3553 
L 469 4384 
Q 803 4563 1142 4656 
Q 1481 4750 1806 4750 
Q 2534 4750 2956 4397 
Q 3378 4044 3378 3438 
Q 3378 2753 2422 1800 
Q 2347 1728 2309 1691 
L 1131 513 
L 3078 513 
L 3078 1088 
L 3444 1088 
L 3444 0 
L 434 0 
L 434 341 
L 1850 1753 
Q 2319 2222 2519 2614 
Q 2719 3006 2719 3438 
Q 2719 3909 2473 4175 
Q 2228 4441 1797 4441 
Q 1350 4441 1106 4219 
Q 863 3997 819 3553 
z
" transform="scale(0.015625)"/>
       </defs>
       <use xlink:href="#DejaVuSerif-35"/>
       <use xlink:href="#DejaVuSerif-30" x="63.623047"/>
       <use xlink:href="#DejaVuSerif-32" x="127.246094"/>
       <use xlink:href="#DejaVuSerif-30" x="190.869141"/>
      </g>
     </g>
    </g>
    <g id="xtick_3">
     <g id="line2d_3">
      <g>
       <use xlink:href="#m41ad390732" x="345.895312" y="336.602813" style="stroke: #000000; stroke-width: 0.8"/>
      </g>
     </g>
     <g id="text_3">
      <!-- 5040 -->
      <g transform="translate(294.995312 373.996563)scale(0.4 -0.4)">
       <defs>
        <path id="DejaVuSerif-34" d="M 2234 1581 
L 2234 4063 
L 641 1581 
L 2234 1581 
z
M 3609 0 
L 1484 0 
L 1484 331 
L 2234 331 
L 2234 1247 
L 197 1247 
L 197 1588 
L 2241 4750 
L 2859 4750 
L 2859 1581 
L 3750 1581 
L 3750 1247 
L 2859 1247 
L 2859 331 
L 3609 331 
L 3609 0 
z
" transform="scale(0.015625)"/>
       </defs>
       <use xlink:href="#DejaVuSerif-35"/>
       <use xlink:href="#DejaVuSerif-30" x="63.623047"/>
       <use xlink:href="#DejaVuSerif-34" x="127.246094"/>
       <use xlink:href="#DejaVuSerif-30" x="190.869141"/>
      </g>
     </g>
    </g>
   </g>
   <g id="matplotlib.axis_2">
    <g id="ytick_1">
     <g id="line2d_4">
      <defs>
       <path id="mdad7b1c6dd" d="M 0 0 
L -3.5 0 
" style="stroke: #000000; stroke-width: 0.8"/>
      </defs>
      <g>
       <use xlink:href="#mdad7b1c6dd" x="55.645313" y="323.992876" style="stroke: #000000; stroke-width: 0.8"/>
      </g>
     </g>
     <g id="text_4">
      <!-- −4 -->
      <g transform="translate(-10.323437 339.189751)scale(0.4 -0.4)">
       <defs>
        <path id="DejaVuSerif-2212" d="M 678 2259 
L 4684 2259 
L 4684 1753 
L 678 1753 
L 678 2259 
z
" transform="scale(0.015625)"/>
       </defs>
       <use xlink:href="#DejaVuSerif-2212"/>
       <use xlink:href="#DejaVuSerif-34" x="83.789062"/>
      </g>
     </g>
    </g>
    <g id="ytick_2">
     <g id="line2d_5">
      <g>
       <use xlink:href="#mdad7b1c6dd" x="55.645313" y="247.618679" style="stroke: #000000; stroke-width: 0.8"/>
      </g>
     </g>
     <g id="text_5">
      <!-- −2 -->
      <g transform="translate(-10.323437 262.815554)scale(0.4 -0.4)">
       <use xlink:href="#DejaVuSerif-2212"/>
       <use xlink:href="#DejaVuSerif-32" x="83.789062"/>
      </g>
     </g>
    </g>
    <g id="ytick_3">
     <g id="line2d_6">
      <g>
       <use xlink:href="#mdad7b1c6dd" x="55.645313" y="171.244481" style="stroke: #000000; stroke-width: 0.8"/>
      </g>
     </g>
     <g id="text_6">
      <!-- 0 -->
      <g transform="translate(23.195313 186.441356)scale(0.4 -0.4)">
       <use xlink:href="#DejaVuSerif-30"/>
      </g>
     </g>
    </g>
    <g id="ytick_4">
     <g id="line2d_7">
      <g>
       <use xlink:href="#mdad7b1c6dd" x="55.645313" y="94.870283" style="stroke: #000000; stroke-width: 0.8"/>
      </g>
     </g>
     <g id="text_7">
      <!-- 2 -->
      <g transform="translate(23.195313 110.067158)scale(0.4 -0.4)">
       <use xlink:href="#DejaVuSerif-32"/>
      </g>
     </g>
    </g>
    <g id="ytick_5">
     <g id="line2d_8">
      <g>
       <use xlink:href="#mdad7b1c6dd" x="55.645313" y="18.496086" style="stroke: #000000; stroke-width: 0.8"/>
      </g>
     </g>
     <g id="text_8">
      <!-- 4 -->
      <g transform="translate(23.195313 33.692961)scale(0.4 -0.4)">
       <use xlink:href="#DejaVuSerif-34"/>
      </g>
     </g>
    </g>
   </g>
   <g id="line2d_9">
    <path d="M 48.389062 171.244481 
L 55.645312 171.244481 
L 62.901563 171.244481 
L 70.157813 171.244481 
L 77.414062 171.244481 
L 84.670312 171.244481 
L 91.926562 171.244481 
L 99.182813 171.244481 
L 106.439063 171.244481 
L 113.695312 171.244481 
L 120.951562 171.244481 
L 128.207812 171.244481 
L 135.464063 171.244481 
L 142.720313 171.244481 
L 149.976562 171.244481 
L 157.232812 171.244481 
L 164.489062 171.244481 
L 171.745313 171.244481 
L 179.001563 171.244481 
L 186.257812 171.244481 
L 193.514062 171.244481 
L 200.770312 171.244481 
L 208.026563 171.244481 
L 215.282813 171.244481 
L 222.539062 171.244481 
L 229.795312 171.244481 
L 237.051562 171.244481 
L 244.307813 171.244481 
L 251.564063 171.244481 
L 258.820312 171.244481 
L 266.076562 171.244481 
L 273.332812 171.244481 
L 280.589063 171.244481 
L 287.845313 171.244481 
L 295.101562 171.244481 
L 302.357812 171.244481 
L 309.614062 171.244481 
L 316.870313 171.244481 
L 324.126563 171.244481 
L 331.382812 171.244481 
L 338.639062 171.244481 
L 345.895312 171.244481 
L 353.151563 171.244481 
" clip-path="url(#pb74d6f964b)" style="fill: none; stroke: #1f77b4; stroke-width: 0.4; stroke-linecap: square"/>
   </g>
   <g id="line2d_10">
    <path d="M 48.389062 135.134342 
L 55.645312 135.134342 
L 62.901563 135.134342 
L 70.157813 135.134342 
L 77.414062 135.134342 
L 84.670312 207.35462 
L 91.926562 135.134342 
L 99.182813 207.35462 
L 106.439063 207.35462 
L 113.695312 135.134342 
L 120.951562 207.35462 
L 128.207812 135.134342 
L 135.464063 135.134342 
L 142.720313 207.35462 
L 149.976562 135.134342 
L 157.232812 135.134342 
L 164.489062 135.134342 
L 171.745313 135.134342 
L 179.001563 207.35462 
L 186.257812 135.134342 
L 193.514062 135.134342 
L 200.770312 207.35462 
L 208.026563 135.134342 
L 215.282813 135.134342 
L 222.539062 135.134342 
L 229.795312 207.35462 
L 237.051562 135.134342 
L 244.307813 207.35462 
L 251.564063 135.134342 
L 258.820312 135.134342 
L 266.076562 207.35462 
L 273.332812 207.35462 
L 280.589063 135.134342 
L 287.845313 135.134342 
L 295.101562 135.134342 
L 302.357812 207.35462 
L 309.614062 207.35462 
L 316.870313 135.134342 
L 324.126563 135.134342 
L 331.382812 207.35462 
L 338.639062 207.35462 
L 345.895312 207.35462 
L 353.151563 135.134342 
" clip-path="url(#pb74d6f964b)" style="fill: none; stroke: #ff7f0e; stroke-width: 0.4; stroke-linecap: square"/>
   </g>
   <g id="line2d_11">
    <path d="M 48.389062 97.24652 
L 55.645312 97.24652 
L 62.901563 97.24652 
L 70.157813 97.24652 
L 77.414062 97.24652 
L 84.670312 245.242442 
L 91.926562 97.24652 
L 99.182813 245.242442 
L 106.439063 245.242442 
L 113.695312 97.24652 
L 120.951562 245.242442 
L 128.207812 97.24652 
L 135.464063 97.24652 
L 142.720313 245.242442 
L 149.976562 97.24652 
L 157.232812 97.24652 
L 164.489062 97.24652 
L 171.745313 97.24652 
L 179.001563 245.242442 
L 186.257812 97.24652 
L 193.514062 97.24652 
L 200.770312 245.242442 
L 208.026563 97.24652 
L 215.282813 97.24652 
L 222.539062 97.24652 
L 229.795312 245.242442 
L 237.051562 97.24652 
L 244.307813 245.242442 
L 251.564063 97.24652 
L 258.820312 97.24652 
L 266.076562 245.242442 
L 273.332812 245.242442 
L 280.589063 97.24652 
L 287.845313 97.24652 
L 295.101562 97.24652 
L 302.357812 245.242442 
L 309.614062 245.242442 
L 316.870313 97.24652 
L 324.126563 97.24652 
L 331.382812 245.242442 
L 338.639062 245.242442 
L 345.895312 245.242442 
L 353.151563 97.24652 
" clip-path="url(#pb74d6f964b)" style="fill: none; stroke: #2ca02c; stroke-width: 0.4; stroke-linecap: square"/>
   </g>
   <g id="line2d_12">
    <path d="M 48.389062 59.100287 
L 55.645312 59.100287 
L 62.901563 59.100287 
L 70.157813 59.100287 
L 77.414062 59.100287 
L 84.670312 283.388675 
L 91.926562 59.100287 
L 99.182813 283.388675 
L 106.439063 283.388675 
L 113.695312 59.100287 
L 120.951562 283.388675 
L 128.207812 59.100287 
L 135.464063 59.100287 
L 142.720313 283.388675 
L 149.976562 59.100287 
L 157.232812 59.100287 
L 164.489062 59.100287 
L 171.745313 59.100287 
L 179.001563 283.388675 
L 186.257812 59.100287 
L 193.514062 59.100287 
L 200.770312 283.388675 
L 208.026563 59.100287 
L 215.282813 59.100287 
L 222.539062 59.100287 
L 229.795312 283.388675 
L 237.051562 59.100287 
L 244.307813 283.388675 
L 251.564063 59.100287 
L 258.820312 59.100287 
L 266.076562 283.388675 
L 273.332812 283.388675 
L 280.589063 59.100287 
L 287.845313 59.100287 
L 295.101562 59.100287 
L 302.357812 283.388675 
L 309.614062 283.388675 
L 316.870313 59.100287 
L 324.126563 59.100287 
L 331.382812 283.388675 
L 338.639062 283.388675 
L 345.895312 283.388675 
L 353.151563 59.100287 
" clip-path="url(#pb74d6f964b)" style="fill: none; stroke: #d62728; stroke-width: 0.4; stroke-linecap: square"/>
   </g>
   <g id="line2d_13">
    <path d="M 48.389062 20.918725 
L 55.645312 20.918725 
L 62.901563 20.918725 
L 70.157813 20.918725 
L 77.414062 20.918725 
L 84.670312 321.570237 
L 91.926562 20.918725 
L 99.182813 321.570237 
L 106.439063 321.570237 
L 113.695312 20.918725 
L 120.951562 321.570237 
L 128.207812 20.918725 
L 135.464063 20.918725 
L 142.720313 321.570237 
L 149.976562 20.918725 
L 157.232812 20.918725 
L 164.489062 20.918725 
L 171.745313 20.918725 
L 179.001563 321.570237 
L 186.257812 20.918725 
L 193.514062 20.918725 
L 200.770312 321.570237 
L 208.026563 20.918725 
L 215.282813 20.918725 
L 222.539062 20.918725 
L 229.795312 321.570237 
L 237.051562 20.918725 
L 244.307813 321.570237 
L 251.564063 20.918725 
L 258.820312 20.918725 
L 266.076562 321.570237 
L 273.332812 321.570237 
L 280.589063 20.918725 
L 287.845313 20.918725 
L 295.101562 20.918725 
L 302.357812 321.570237 
L 309.614062 321.570237 
L 316.870313 20.918725 
L 324.126563 20.918725 
L 331.382812 321.570237 
L 338.639062 321.570237 
L 345.895312 321.570237 
L 353.151563 20.918725 
" clip-path="url(#pb74d6f964b)" style="fill: none; stroke: #9467bd; stroke-width: 0.4; stroke-linecap: square"/>
   </g>
   <g id="patch_3">
    <path d="M 55.645313 336.602813 
L 55.645313 5.88615 
" style="fill: none; stroke: #000000; stroke-width: 0.8; stroke-linejoin: miter; stroke-linecap: square"/>
   </g>
   <g id="patch_4">
    <path d="M 345.895312 336.602813 
L 345.895312 5.88615 
" style="fill: none; stroke: #000000; stroke-width: 0.8; stroke-linejoin: miter; stroke-linecap: square"/>
   </g>
   <g id="patch_5">
    <path d="M 55.645312 336.602813 
L 345.895312 336.602813 
" style="fill: none; stroke: #000000; stroke-width: 0.8; stroke-linejoin: miter; stroke-linecap: square"/>
   </g>
   <g id="patch_6">
    <path d="M 55.645312 5.88615 
L 345.895312 5.88615 
" style="fill: none; stroke: #000000; stroke-width: 0.8; stroke-linejoin: miter; stroke-linecap: square"/>
   </g>
  </g>
 </g>
 <defs>
  <clipPath id="pb74d6f964b">
   <rect x="55.645313" y="5.88615" width="290.25" height="330.716663"/>
  </clipPath>
 </defs>
</svg>
